<svg width="254" height="68" viewBox="0 0 254 68" fill="none" xmlns="http://www.w3.org/2000/svg">
<g clip-path="url(#clip0_736_493)">
<path d="M1.13965 66.1452V53.745C1.13965 52.8483 1.81731 52.168 2.71059 52.168H10.2881C11.1198 52.168 11.7358 52.7864 11.7358 53.6214C11.7358 54.4563 11.089 55.0438 10.2881 55.0438H4.31234V58.198H8.40911C9.20998 58.198 9.79524 58.7855 9.79524 59.5586C9.79524 60.3317 9.20998 60.8883 8.40911 60.8883H4.31234V64.8155H10.5653C11.397 64.8155 12.013 65.4649 12.013 66.2689C12.013 67.0729 11.3662 67.7223 10.5653 67.7223H2.71059C1.81731 67.7223 1.13965 67.042 1.13965 66.1452Z" fill="#080710"/>
<path d="M43.3701 59.8984C43.3701 64.5369 39.8894 67.722 34.9302 67.722H31.4494C30.4946 67.722 29.8169 67.0417 29.8169 66.0831V53.7756C29.8169 52.817 30.4946 52.1367 31.4494 52.1367H34.9302C39.951 52.1367 43.3701 55.26 43.3701 59.8675M33.0204 55.0126V64.8152H34.9302C38.0412 64.8152 40.1358 62.8671 40.1358 59.8675C40.1358 56.868 38.1337 55.0126 34.9302 55.0126H33.0204Z" fill="#080710"/>
<path d="M61.2051 61.289V53.4963C61.2051 52.5687 61.8827 51.8574 62.8068 51.8574C63.7309 51.8574 64.3778 52.5687 64.3778 53.4963V61.5054C64.3778 63.6701 65.7023 65.0307 67.7969 65.0307C69.8915 65.0307 71.216 63.6701 71.216 61.5054V53.4963C71.216 52.5687 71.8937 51.8574 72.8177 51.8574C73.7418 51.8574 74.3887 52.5687 74.3887 53.4963V61.289C74.3887 65.309 71.7396 67.9993 67.7969 67.9993C63.8541 67.9993 61.2051 65.2781 61.2051 61.289Z" fill="#080710"/>
<path d="M92.1622 59.9284C92.1622 55.4136 95.7661 51.8574 100.417 51.8574C102.789 51.8574 105.038 52.8779 106.393 54.5477C106.732 54.9188 106.886 55.2899 106.886 55.7228C106.886 56.4959 106.239 57.1762 105.407 57.1762C104.945 57.1762 104.545 56.9597 104.175 56.5577C103.159 55.3827 101.896 54.826 100.387 54.826C97.4911 54.826 95.3965 56.9597 95.3965 59.9593C95.3965 62.9588 97.4911 65.0616 100.387 65.0616C101.865 65.0616 103.128 64.505 104.144 63.3299C104.514 62.9279 104.915 62.7114 105.377 62.7114C106.208 62.7114 106.824 63.3608 106.824 64.1648C106.824 64.5359 106.701 64.907 106.331 65.3399C104.976 67.0098 102.728 68.0302 100.356 68.0302C95.7045 68.0302 92.1006 64.505 92.1006 59.9593" fill="#080710"/>
<path d="M137.966 66.4531C137.966 67.319 137.319 67.9993 136.426 67.9993C135.748 67.9993 135.224 67.5973 134.916 66.8551L134.27 65.2471H127.709L127.062 66.8551C126.784 67.5973 126.261 67.9993 125.583 67.9993C124.69 67.9993 124.012 67.319 124.012 66.4531C124.012 66.2058 124.074 65.9274 124.197 65.6182L129.495 52.9397C129.772 52.2285 130.296 51.8574 131.004 51.8574C131.713 51.8574 132.237 52.2285 132.514 52.9397L137.812 65.6182C137.966 65.9584 137.997 66.2367 137.997 66.4531M128.756 62.6187H133.222L131.004 56.5268L128.756 62.6187Z" fill="#080710"/>
<path d="M157.556 66.3614V55.0126H153.86C153.028 55.0126 152.412 54.3632 152.412 53.5592C152.412 52.7552 153.059 52.1367 153.86 52.1367H164.394C165.226 52.1367 165.842 52.7552 165.842 53.5592C165.842 54.3632 165.195 55.0126 164.394 55.0126H160.698V66.3614C160.698 67.2891 160.02 68.0003 159.096 68.0003C158.172 68.0003 157.525 67.2891 157.525 66.3614" fill="#080710"/>
<path d="M183.03 66.3604V53.4963C183.03 52.5687 183.677 51.8574 184.632 51.8574C185.587 51.8574 186.203 52.5687 186.203 53.4963V66.3604C186.203 67.2881 185.556 67.9993 184.632 67.9993C183.708 67.9993 183.03 67.2881 183.03 66.3604Z" fill="#080710"/>
<path d="M220.61 59.9284C220.61 64.4431 216.975 67.9993 212.355 67.9993C207.734 67.9993 204.13 64.4741 204.13 59.9284C204.13 55.3827 207.734 51.8574 212.355 51.8574C216.975 51.8574 220.61 55.4136 220.61 59.9284ZM207.395 59.9284C207.395 62.9279 209.459 65.0307 212.386 65.0307C215.312 65.0307 217.376 62.897 217.376 59.9284C217.376 56.9597 215.281 54.826 212.386 54.826C209.49 54.826 207.395 56.9597 207.395 59.9284Z" fill="#080710"/>
<path d="M251.751 53.4963V66.3913C251.751 67.2881 251.105 67.9993 250.211 67.9993C249.441 67.9993 249.072 67.5355 248.64 67.0407L241.741 58.1348V66.3913C241.741 67.319 241.063 68.0302 240.17 68.0302C239.276 68.0302 238.568 67.319 238.568 66.3913V53.4963C238.568 52.5996 239.246 51.8883 240.108 51.8883C240.909 51.8883 241.248 52.3522 241.741 52.9088L248.61 61.7528V53.4963C248.61 52.5687 249.256 51.8574 250.181 51.8574C251.105 51.8574 251.751 52.5687 251.751 53.4963Z" fill="#080710"/>
<path d="M169.446 40.7886C166.15 40.7886 163.07 39.2733 161.068 36.6449L140.892 10.2365C139.044 7.8245 139.506 4.3611 141.909 2.53664C144.311 0.68125 147.761 1.1451 149.578 3.5571L169.446 29.5325L189.314 3.5571C191.162 1.1451 194.581 0.68125 196.984 2.53664C199.387 4.39203 199.849 7.8245 198 10.2365L177.825 36.6449C175.822 39.2733 172.773 40.7886 169.446 40.7886Z" fill="#080710"/>
<path d="M248.517 39.3961C246.885 39.3961 245.252 38.6539 244.174 37.2315L224.306 11.256L204.438 37.2315C202.59 39.6435 199.171 40.1073 196.768 38.2519C194.366 36.3965 193.904 32.9641 195.752 30.5521L215.928 4.1437C217.93 1.51523 221.01 0 224.306 0C227.602 0 230.652 1.51523 232.685 4.1437L252.86 30.5211C254.709 32.9332 254.246 36.3965 251.844 38.221C250.858 38.9941 249.688 39.3652 248.517 39.3652" fill="#080710"/>
<path d="M118.807 39.3968H87.5417C77.9928 39.3968 70.1997 31.6042 70.1997 21.9871V18.5855C70.1997 8.99934 77.962 1.17578 87.5417 1.17578H118.807C128.355 1.17578 136.149 8.99934 136.149 18.5855V21.9871C136.149 31.5732 128.386 39.3968 118.807 39.3968ZM87.5417 12.1844C84.0302 12.1844 81.1655 15.0603 81.1655 18.5855V21.9871C81.1655 25.5123 84.0302 28.3882 87.5417 28.3882H118.807C122.318 28.3882 125.183 25.5123 125.183 21.9871V18.5855C125.183 15.0603 122.318 12.1844 118.807 12.1844H87.5417Z" fill="#080710"/>
<path d="M5.4829 39.3968C2.46423 39.3968 0 36.9229 0 33.8925V11.535C0 8.0098 1.90977 4.76287 4.95925 3.03117C8.00873 1.29947 11.7975 1.39224 14.7854 3.21671L53.0732 26.7801V6.6801C53.0732 3.64963 55.5375 1.17578 58.5562 1.17578C61.5748 1.17578 64.0391 3.64963 64.0391 6.6801V29.0375C64.0391 32.5628 62.1293 35.8097 59.0798 37.5414C56.0303 39.2731 52.2416 39.1803 49.2537 37.3559L10.9658 13.7615V33.8615C10.9658 36.892 8.50158 39.3659 5.4829 39.3659" fill="#080710"/>
</g>
<defs>
<clipPath id="clip0_736_493">
<rect width="254" height="68" fill="white"/>
</clipPath>
</defs>
</svg>
